<?xml version="1.0" encoding="UTF-8"?><svg id="a" xmlns="http://www.w3.org/2000/svg" xmlns:xlink="http://www.w3.org/1999/xlink" viewBox="0 0 454.03 62.35"><defs><style>.f{fill:#3ea6bd;}.g{fill:url(#e);isolation:isolate;opacity:.34;}.h{fill:#0f1e30;}.i{fill:#7bc0e6;}.j{clip-path:url(#d);}.k{fill:none;}</style><clipPath id="d"><rect class="k" x=".37" y="-1071.14" width="453.94" height="1133.49"/></clipPath><pattern id="e" x="0" y="0" width="8.21" height="8.21" patternTransform="translate(-31870.31 16203.65) rotate(-180) scale(1 -1)" patternUnits="userSpaceOnUse" viewBox="0 0 8.21 8.21"><g><rect class="k" width="8.21" height="8.21"/><g><rect class="k" width="8.21" height="8.21"/><circle class="i" cx="4.11" cy="4.1" r="2.06"/></g></g></pattern></defs><g id="b"><g id="c"><g class="j"><g><polyline class="h" points="218.12 36.31 32.14 -30.59 -26.27 39.37 -26.27 290.6 800.65 327.37 457.89 -156.71"/><polygon class="f" points="287.79 -1.48 178.15 -25.99 -15.51 2.6 283.7 108.82 587 -58.67 570.61 -140.37 287.79 -1.48"/><polygon class="g" points="459.43 -150.08 464.04 -162.33 268.84 -4.54 178.15 -25.99 84.39 -9.14 32.14 -30.59 -.14 6.18 .37 62.35 454.31 62.35 459.43 -150.08"/></g></g></g></g></svg>