<?xml version="1.0" encoding="UTF-8"?><svg id="a" xmlns="http://www.w3.org/2000/svg" xmlns:xlink="http://www.w3.org/1999/xlink" viewBox="0 0 454.05 153.75"><defs><style>.f{fill:#3ea6bd;}.g{fill:url(#e);isolation:isolate;opacity:.34;}.h{fill:#0f1e30;}.i{fill:#7bc0e6;}.j{clip-path:url(#d);}.k{fill:none;}</style><clipPath id="d"><rect class="k" x=".39" y="-917.39" width="453.94" height="1133.49"/></clipPath><pattern id="e" x="0" y="0" width="8.21" height="8.21" patternTransform="translate(-31870.29 16357.4) rotate(-180) scale(1 -1)" patternUnits="userSpaceOnUse" viewBox="0 0 8.21 8.21"><g><rect class="k" width="8.21" height="8.21"/><g><rect class="k" width="8.21" height="8.21"/><circle class="i" cx="4.11" cy="4.1" r="2.06"/></g></g></pattern></defs><g id="b"><g id="c"><g class="j"><g><polyline class="h" points="218.14 190.06 32.16 123.16 -26.25 193.12 -26.25 444.35 800.67 481.12 457.91 -2.96"/><polygon class="f" points="287.81 152.27 178.17 127.76 -15.49 156.35 283.72 262.57 587.02 95.08 570.63 13.38 287.81 152.27"/><polygon class="g" points="459.45 3.67 464.06 -8.58 268.86 149.21 178.17 127.76 84.41 144.61 32.16 123.16 -.12 159.93 .39 216.1 454.33 216.1 459.45 3.67"/></g></g></g></g></svg>