<?xml version="1.0" encoding="UTF-8"?><svg id="a" xmlns="http://www.w3.org/2000/svg" xmlns:xlink="http://www.w3.org/1999/xlink" viewBox="0 0 454.11 117.47"><defs><style>.f{fill:#3ea6bd;}.g{fill:url(#e);opacity:.16;}.g,.h{isolation:isolate;}.i{fill:#0f1e30;}.j{fill:#7bc0e6;}.k{clip-path:url(#d);}.l{fill:none;}.h{fill:#dcdddd;opacity:.82;}</style><clipPath id="d"><rect class="l" x=".34" width="453.94" height="1133.49"/></clipPath><pattern id="e" x="0" y="0" width="8.21" height="8.21" patternTransform="translate(11.69 -15475.89) scale(1 -1)" patternUnits="userSpaceOnUse" viewBox="0 0 8.21 8.21"><g><rect class="l" width="8.21" height="8.21"/><g><rect class="l" width="8.21" height="8.21"/><circle class="j" cx="4.11" cy="4.1" r="2.06"/></g></g></pattern></defs><g id="b"><g id="c"><g class="k"><g><polyline class="i" points="274.96 64.21 393.31 140.81 519.34 61.15 519.34 -190.09 -307.58 -226.85 35.18 257.23"/><polygon class="h" points="-.17 194.43 454.28 111.19 214.24 -126.51 112.8 -126.51 172.74 68.04 -.17 194.43"/><polygon class="f" points="205.28 102 361.03 151.02 508.58 97.91 209.38 -8.3 -93.93 159.19 -77.54 240.89 205.28 102"/><polygon class="g" points="1.88 251.11 203.23 153.06 246.26 140.81 330.8 150 449.15 82.6 470.67 -133.4 -105.72 -154.85 1.88 251.11"/></g></g></g></g></svg>