<?xml version="1.0" encoding="UTF-8"?><svg id="a" xmlns="http://www.w3.org/2000/svg" xmlns:xlink="http://www.w3.org/1999/xlink" viewBox="0 0 453.45 139.23"><defs><style>.f{fill:#3ea6bd;}.g{fill:url(#e);opacity:.16;}.g,.h{isolation:isolate;}.i{fill:#0f1e30;}.j{fill:#7bc0e6;}.k{clip-path:url(#d);}.l{fill:none;}.h{fill:#dcdddd;opacity:.82;}</style><clipPath id="d"><rect class="l" x="-.09" y="-117.89" width="453.94" height="1133.49"/></clipPath><pattern id="e" x="0" y="0" width="8.21" height="8.21" patternTransform="translate(11.26 -15593.78) scale(1 -1)" patternUnits="userSpaceOnUse" viewBox="0 0 8.21 8.21"><g><rect class="l" width="8.21" height="8.21"/><g><rect class="l" width="8.21" height="8.21"/><circle class="j" cx="4.11" cy="4.1" r="2.06"/></g></g></pattern></defs><g id="b"><g id="c"><g class="k"><g><polyline class="i" points="274.53 -53.68 392.88 22.92 518.91 -56.74 518.91 -307.98 -308.01 -344.74 34.75 139.34"/><polygon class="h" points="-.6 76.54 453.85 -6.7 213.81 -244.4 112.37 -244.4 172.31 -49.85 -.6 76.54"/><polygon class="f" points="204.85 -15.89 360.6 33.13 508.15 -19.98 208.95 -126.19 -94.36 41.3 -77.97 123 204.85 -15.89"/><polygon class="g" points="1.45 133.22 202.8 35.17 245.83 22.92 330.37 32.11 448.72 -35.29 470.24 -251.29 -106.15 -272.74 1.45 133.22"/></g></g></g></g></svg>